# xmcd CD database file
#
# Track frame offsets:
#	160
#	13267
#	33767
#	50515
#	65012
#	85067
#	113135
#	134357
#	156747
#	172362
#	191220
#	219130
#
# Disc length: 3249 seconds
#
# Revision: 4
# Processed by: cddbd v1.5.1PL0 Copyright (c) Steve Scherf et al.
# Submitted via: CDex 1.51
#
DISCID=b00caf0c
DTITLE=Screamin' Jay Hawkins - Black Music For White People
DYEAR=1991
DGENRE=Blues
TTITLE0=Is You Is Or Is You Ain't Ny Baby
TTITLE1=I Feel Alright
TTITLE2=I Put A Spell On You
TTITLE3=I Hear You Knocking
TTITLE4=Heart Attack And Vine
TTITLE5=Ignant And Shit
TTITLE6=Swamp Gas
TTITLE7=Voodoo Priestess
TTITLE8=Ice Cream Man
TTITLE9=I Want Your Body
TTITLE10=Ol' Man River
TTITLE11=Strokin'
EXTD=YEAR: 1991
EXTT0=
EXTT1=
EXTT2=
EXTT3=
EXTT4=
EXTT5=
EXTT6=
EXTT7=
EXTT8=
EXTT9=
EXTT10=
EXTT11=
PLAYORDER=
